# xmcd
#
# Track frame offsets:
#	150
#	4400
#	19529
#	35637
#	53512
#	65638
#	79720
#	96121
#	111210
#	119411
#	131977
#	155086
#	172353
#
# Disc length: 2456 seconds
#
# Revision: 1
# Processed by: cddbd v1.5.1PL0 Copyright (c) Steve Scherf et al.
# Submitted via: audiograbber 1.83.01
#
DISCID=b509960d
DTITLE=The Mescaleros - Doin' Time
DYEAR=2000
DGENRE=R&B
TTITLE0=Show Time
TTITLE1=Hot as Texas
TTITLE2=Where I Belong
TTITLE3=Counting Stars
TTITLE4=You Had a Friend
TTITLE5=Doin' Time
TTITLE6=I'm Sorry - Just About Anyway
TTITLE7=Rejected
TTITLE8=Positively Blues
TTITLE9=Knight in Shining Armour
TTITLE10=Summer Is Here
TTITLE11=Missy At Home
TTITLE12=Mescaleros in India
EXTD=
EXTT0=
EXTT1=
EXTT2=
EXTT3=
EXTT4=
EXTT5=
EXTT6=
EXTT7=
EXTT8=
EXTT9=
EXTT10=
EXTT11=
EXTT12=
PLAYORDER=
